# xmcd CD database file
#
# Track frame offsets:
#	150
#	12053
#	25648
#	40214
#	54462
#	68764
#	82534
#	93045
#	106966
#	122294
#	136171
#	149005
#	164846
#	179082
#	192194
#
# Disc length: 2723 seconds
#
# Revision: 5
# Processed by: cddbd v1.5.2PL0 Copyright (c) Steve Scherf et al.
# Submitted via: CDex 1.51
#
DISCID=bb0aa10f
DTITLE=Diverse - Christmas Wonderland - CD2
DYEAR=2006
DGENRE=Christmas
TTITLE0=Perry Como - It's beginning to look like Christmas
TTITLE1=Arthur Tracy - The little boy that Santa Claus forgot
TTITLE2=Mario Lanza - The first Noel
TTITLE3=Gene Autry - Rudolph The Red Nosed Rendeer
TTITLE4=Joan Regan - Must be Santa
TTITLE5=Fats Waller - Swingin' them Jingle Bells
TTITLE6=Anne Shelton - Merry Christmas
TTITLE7=Frank Sinatra - O little town of Bethlehem
TTITLE8=The Andrews Sisters - Twelve Days of Christmas
TTITLE9=Bing Crosby and Rosemary Clooney - Silver Bells
TTITLE10=Gene Autry and Rosemary Clooney - Twas the night before Christmas
TTITLE11=Frank Sinatra - It came upon a midnight clear
TTITLE12=Ella Fitzgerald - Santa Claus got stuck in my chimney
TTITLE13=Judy Garland - Over the Rainbow
TTITLE14=Bing Crosby - Let's start the new year right
EXTD=YEAR: 2006
EXTT0=
EXTT1=
EXTT2=
EXTT3=
EXTT4=
EXTT5=
EXTT6=
EXTT7=
EXTT8=
EXTT9=
EXTT10=
EXTT11=
EXTT12=
EXTT13=
EXTT14=
PLAYORDER=
